{
	"nodes":[{
		"name":"obj003",
		"translation":[0.19077084958553315,
		1.7061131000518799,
		1.5643759965896607],
		"rotation":[0.002285206690430641,
		0.7116028070449829,
		0.00289321830496192,
		0.7025722861289978],
		"scale":[1.0,
		1.0,
		1.0],
		"mesh":0
	},
	{
		"name":"Door",
		"translation":[-0.032377030700445178,
		-0.04730316996574402,
		-0.001242282334715128],
		"rotation":[0.0,
		0.0,
		0.0,
		-1.0],
		"scale":[1.0,
		1.0,
		1.0],
		"mesh":1
	}],
	"asset":{
		"version":"2.0",
		"generator":"Created using the official Cinema 4D glTF Exporter 1.000x284978"
	},
	"scenes":[{
		"nodes":[0,
		1]
	}],
	"materials":[{
		"pbrMetallicRoughness":{
			"baseColorFactor":[0.5251,
			0.5835099999999998,
			0.59,
			1.0],
			"metallicFactor":0.0,
			"roughnessFactor":0.5
		},
		"emissiveFactor":[0.0,
		0.0,
		0.0],
		"alphaMode":"OPAQUE",
		"name":"Mat.1",
		"doubleSided":false
	},
	{
		"pbrMetallicRoughness":{
			"baseColorFactor":[0.5700000000000001,
			0.40128000000000016,
			0.29640000000000008,
			1.0],
			"metallicFactor":0.0,
			"roughnessFactor":0.5
		},
		"emissiveFactor":[0.0,
		0.0,
		0.0],
		"alphaMode":"OPAQUE",
		"name":"Mat",
		"doubleSided":false
	}],
	"meshes":[{
		"name":"obj003",
		"primitives":[{
			"material":0,
			"attributes":{
				"POSITION":1,
				"NORMAL":2,
				"TEXCOORD_0":3
			},
			"indices":0
		}]
	},
	{
		"name":"Door",
		"primitives":[{
			"material":1,
			"attributes":{
				"POSITION":5,
				"NORMAL":6,
				"TEXCOORD_0":7
			},
			"indices":4
		}]
	}],
	"accessors":[{
		"bufferView":0,
		"type":"SCALAR",
		"componentType":5123,
		"count":119613,
		"byteOffset":0,
		"min":[0],
		"max":[40978]
	},
	{
		"bufferView":1,
		"type":"VEC3",
		"componentType":5126,
		"count":40979,
		"byteOffset":0,
		"min":[-0.10521956533193588,
		-0.20355914533138276,
		0.002910422161221504],
		"max":[0.23344115912914277,
		0.1315421313047409,
		0.16063134372234345]
	},
	{
		"bufferView":1,
		"type":"VEC3",
		"componentType":5126,
		"count":40979,
		"byteOffset":12,
		"min":[-0.9999990463256836,
		-1.0,
		-0.9999992847442627],
		"max":[0.9999990463256836,
		1.0,
		0.9999996423721314]
	},
	{
		"bufferView":1,
		"type":"VEC2",
		"componentType":5126,
		"count":40979,
		"byteOffset":24,
		"min":[-122.40454864501953,
		-121.40476989746094],
		"max":[122.404541015625,
		379.0810546875]
	},
	{
		"bufferView":2,
		"type":"SCALAR",
		"componentType":5123,
		"count":1746,
		"byteOffset":0,
		"min":[0],
		"max":[644]
	},
	{
		"bufferView":3,
		"type":"VEC3",
		"componentType":5126,
		"count":645,
		"byteOffset":0,
		"min":[0.0,
		0.0,
		0.0],
		"max":[0.23650026321411134,
		4.03847074508667,
		1.7375116348266602]
	},
	{
		"bufferView":3,
		"type":"VEC3",
		"componentType":5126,
		"count":645,
		"byteOffset":12,
		"min":[-0.9999688267707825,
		-1.0,
		-0.9999688267707825],
		"max":[0.9999688267707825,
		1.0,
		0.9999688267707825]
	},
	{
		"bufferView":3,
		"type":"VEC2",
		"componentType":5126,
		"count":645,
		"byteOffset":24,
		"min":[-0.311970055103302,
		0.0],
		"max":[1.0,
		1.0]
	}],
	"bufferViews":[{
		"buffer":0,
		"byteOffset":0,
		"byteLength":239226,
		"target":34963
	},
	{
		"buffer":0,
		"byteOffset":239228,
		"byteLength":1311328,
		"target":34962,
		"byteStride":32
	},
	{
		"buffer":1,
		"byteOffset":0,
		"byteLength":3492,
		"target":34963
	},
	{
		"buffer":1,
		"byteOffset":3492,
		"byteLength":20640,
		"target":34962,
		"byteStride":32
	}],
	"buffers":[{
		"uri":"data:application/octet-stream;base64,",
		"byteLength":1550556
	},
	{
		"uri":"data:application/octet-stream;base64,",
		"byteLength":24132
	}]
}