{
	"nodes":[{
		"name":"Desk",
		"mesh":0
	},
	{
		"name":"Chairs",
		"children":[2,
		3]
	},
	{
		"name":"Chairs-Mat",
		"mesh":1
	},
	{
		"name":"Chairs-Mat.1",
		"mesh":2
	},
	{
		"name":"Walls",
		"translation":[-2.048988103866577,
		2.530916929244995,
		-2.516758680343628],
		"rotation":[0.0,
		0.0,
		0.0,
		-1.0],
		"scale":[1.0,
		1.0,
		1.0],
		"children":[5,
		6,
		7]
	},
	{
		"name":"Walls-Material.001",
		"mesh":3
	},
	{
		"name":"Walls-Mat",
		"mesh":4
	},
	{
		"name":"Walls-Mat.1",
		"mesh":5
	}],
	"asset":{
		"version":"2.0",
		"generator":"Created using the official Cinema 4D glTF Exporter 1.000x284978"
	},
	"scenes":[{
		"nodes":[0,
		1,
		4]
	}],
	"materials":[{
		"pbrMetallicRoughness":{
			"baseColorFactor":[0.5700000000000001,
			0.40128000000000016,
			0.29640000000000008,
			1.0],
			"metallicFactor":0.0,
			"roughnessFactor":0.5
		},
		"emissiveFactor":[0.0,
		0.0,
		0.0],
		"alphaMode":"OPAQUE",
		"name":"Mat",
		"doubleSided":false
	},
	{
		"pbrMetallicRoughness":{
			"baseColorFactor":[0.5251,
			0.5835099999999998,
			0.59,
			1.0],
			"metallicFactor":0.0,
			"roughnessFactor":0.5
		},
		"emissiveFactor":[0.0,
		0.0,
		0.0],
		"alphaMode":"OPAQUE",
		"name":"Mat.1",
		"doubleSided":false
	},
	{
		"pbrMetallicRoughness":{
			"baseColorFactor":[1.0,
			1.0,
			1.0,
			1.0],
			"metallicFactor":0.0,
			"roughnessFactor":0.5
		},
		"emissiveFactor":[0.0,
		0.0,
		0.0],
		"alphaMode":"OPAQUE",
		"name":"Material.001",
		"doubleSided":false
	}],
	"meshes":[{
		"name":"Desk",
		"primitives":[{
			"material":0,
			"attributes":{
				"POSITION":1,
				"NORMAL":2,
				"TEXCOORD_0":3
			},
			"indices":0
		}]
	},
	{
		"name":"Chairs-Mat",
		"primitives":[{
			"material":0,
			"attributes":{
				"POSITION":5,
				"NORMAL":6,
				"TEXCOORD_0":7
			},
			"indices":4
		}]
	},
	{
		"name":"Chairs-Mat.1",
		"primitives":[{
			"material":1,
			"attributes":{
				"POSITION":9,
				"NORMAL":10,
				"TEXCOORD_0":11
			},
			"indices":8
		}]
	},
	{
		"name":"Walls-Material.001",
		"primitives":[{
			"material":2,
			"attributes":{
				"POSITION":13,
				"NORMAL":14,
				"TEXCOORD_0":15
			},
			"indices":12
		}]
	},
	{
		"name":"Walls-Mat",
		"primitives":[{
			"material":0,
			"attributes":{
				"POSITION":17,
				"NORMAL":18,
				"TEXCOORD_0":19
			},
			"indices":16
		}]
	},
	{
		"name":"Walls-Mat.1",
		"primitives":[{
			"material":1,
			"attributes":{
				"POSITION":21,
				"NORMAL":22,
				"TEXCOORD_0":23
			},
			"indices":20
		}]
	}],
	"accessors":[{
		"bufferView":0,
		"type":"SCALAR",
		"componentType":5123,
		"count":5718,
		"byteOffset":0,
		"min":[0],
		"max":[1684]
	},
	{
		"bufferView":1,
		"type":"VEC3",
		"componentType":5126,
		"count":1685,
		"byteOffset":0,
		"min":[-0.062276691198349,
		-0.000050000002374872568,
		-1.3040159940719605],
		"max":[2.1225664615631105,
		1.4782299995422364,
		1.2888931035995484]
	},
	{
		"bufferView":1,
		"type":"VEC3",
		"componentType":5126,
		"count":1685,
		"byteOffset":12,
		"min":[-0.9974375367164612,
		-1.0,
		-0.9952812790870667],
		"max":[0.9974375367164612,
		1.0,
		0.9952812790870667]
	},
	{
		"bufferView":1,
		"type":"VEC2",
		"componentType":5126,
		"count":1685,
		"byteOffset":24,
		"min":[0.007499999832361937,
		0.007799983024597168],
		"max":[0.9977999925613403,
		0.9916999340057373]
	},
	{
		"bufferView":2,
		"type":"SCALAR",
		"componentType":5123,
		"count":3240,
		"byteOffset":0,
		"min":[0],
		"max":[899]
	},
	{
		"bufferView":3,
		"type":"VEC3",
		"componentType":5126,
		"count":900,
		"byteOffset":0,
		"min":[2.396831750869751,
		-0.014763838611543179,
		-1.8749560117721558],
		"max":[5.248322486877441,
		2.183137893676758,
		2.4407496452331545]
	},
	{
		"bufferView":3,
		"type":"VEC3",
		"componentType":5126,
		"count":900,
		"byteOffset":12,
		"min":[-0.9978750348091126,
		-0.9994062781333923,
		-0.9959688186645508],
		"max":[0.9899063110351563,
		0.9667813181877136,
		0.9927188158035278]
	},
	{
		"bufferView":3,
		"type":"VEC2",
		"componentType":5126,
		"count":900,
		"byteOffset":24,
		"min":[0.225600004196167,
		0.00260007381439209],
		"max":[0.9966999292373657,
		0.9958999156951904]
	},
	{
		"bufferView":4,
		"type":"SCALAR",
		"componentType":5123,
		"count":6048,
		"byteOffset":0,
		"min":[0],
		"max":[1553]
	},
	{
		"bufferView":5,
		"type":"VEC3",
		"componentType":5126,
		"count":1554,
		"byteOffset":0,
		"min":[2.3167617321014406,
		-0.0596875362098217,
		-1.9116326570510865],
		"max":[5.322603702545166,
		2.183687925338745,
		2.4931576251983644]
	},
	{
		"bufferView":5,
		"type":"VEC3",
		"componentType":5126,
		"count":1554,
		"byteOffset":12,
		"min":[-0.9978438019752502,
		-0.9990313053131104,
		-0.986750066280365],
		"max":[0.9934688210487366,
		0.999093770980835,
		0.9894688129425049]
	},
	{
		"bufferView":5,
		"type":"VEC2",
		"componentType":5126,
		"count":1554,
		"byteOffset":24,
		"min":[0.03449999541044235,
		0.0048999786376953129],
		"max":[0.29030001163482668,
		0.9433000087738037]
	},
	{
		"bufferView":6,
		"type":"SCALAR",
		"componentType":5123,
		"count":540,
		"byteOffset":0,
		"min":[0],
		"max":[282]
	},
	{
		"bufferView":7,
		"type":"VEC3",
		"componentType":5126,
		"count":283,
		"byteOffset":0,
		"min":[-2.696492910385132,
		-2.820889472961426,
		-4.317328929901123],
		"max":[7.926509857177734,
		3.3771297931671144,
		5.0882463455200199]
	},
	{
		"bufferView":7,
		"type":"VEC3",
		"componentType":5126,
		"count":283,
		"byteOffset":12,
		"min":[-1.0,
		-1.0,
		-1.0],
		"max":[1.0,
		1.0,
		1.0]
	},
	{
		"bufferView":7,
		"type":"VEC2",
		"componentType":5126,
		"count":283,
		"byteOffset":24,
		"min":[0.0,
		0.0],
		"max":[1.0,
		1.0]
	},
	{
		"bufferView":8,
		"type":"SCALAR",
		"componentType":5123,
		"count":408,
		"byteOffset":0,
		"min":[0],
		"max":[207]
	},
	{
		"bufferView":9,
		"type":"VEC3",
		"componentType":5126,
		"count":208,
		"byteOffset":0,
		"min":[-2.393235683441162,
		1.4681187868118287,
		-2.0957937240600588],
		"max":[-2.115262508392334,
		3.147036075592041,
		-0.2345990091562271]
	},
	{
		"bufferView":9,
		"type":"VEC3",
		"componentType":5126,
		"count":208,
		"byteOffset":12,
		"min":[-1.0,
		-1.0,
		-1.0],
		"max":[1.0,
		1.0,
		1.0]
	},
	{
		"bufferView":9,
		"type":"VEC2",
		"componentType":5126,
		"count":208,
		"byteOffset":24,
		"min":[0.0,
		0.0],
		"max":[1.0,
		1.0]
	},
	{
		"bufferView":10,
		"type":"SCALAR",
		"componentType":5123,
		"count":180,
		"byteOffset":0,
		"min":[0],
		"max":[119]
	},
	{
		"bufferView":11,
		"type":"VEC3",
		"componentType":5126,
		"count":120,
		"byteOffset":0,
		"min":[-2.6682069301605226,
		-2.545170307159424,
		-3.8491742610931398],
		"max":[7.869513034820557,
		-2.0618700981140138,
		5.5412373542785648]
	},
	{
		"bufferView":11,
		"type":"VEC3",
		"componentType":5126,
		"count":120,
		"byteOffset":12,
		"min":[-1.0,
		-1.0,
		-1.0],
		"max":[1.0,
		1.0,
		1.0]
	},
	{
		"bufferView":11,
		"type":"VEC2",
		"componentType":5126,
		"count":120,
		"byteOffset":24,
		"min":[0.0,
		0.0],
		"max":[1.0,
		1.0]
	}],
	"bufferViews":[{
		"buffer":0,
		"byteOffset":0,
		"byteLength":11436,
		"target":34963
	},
	{
		"buffer":0,
		"byteOffset":11436,
		"byteLength":53920,
		"target":34962,
		"byteStride":32
	},
	{
		"buffer":1,
		"byteOffset":0,
		"byteLength":6480,
		"target":34963
	},
	{
		"buffer":1,
		"byteOffset":6480,
		"byteLength":28800,
		"target":34962,
		"byteStride":32
	},
	{
		"buffer":2,
		"byteOffset":0,
		"byteLength":12096,
		"target":34963
	},
	{
		"buffer":2,
		"byteOffset":12096,
		"byteLength":49728,
		"target":34962,
		"byteStride":32
	},
	{
		"buffer":3,
		"byteOffset":0,
		"byteLength":1080,
		"target":34963
	},
	{
		"buffer":3,
		"byteOffset":1080,
		"byteLength":9056,
		"target":34962,
		"byteStride":32
	},
	{
		"buffer":4,
		"byteOffset":0,
		"byteLength":816,
		"target":34963
	},
	{
		"buffer":4,
		"byteOffset":816,
		"byteLength":6656,
		"target":34962,
		"byteStride":32
	},
	{
		"buffer":5,
		"byteOffset":0,
		"byteLength":360,
		"target":34963
	},
	{
		"buffer":5,
		"byteOffset":360,
		"byteLength":3840,
		"target":34962,
		"byteStride":32
	}],
	"buffers":[{
		"uri":"data:application/octet-stream;base64,",
		"byteLength":65356
	},
	{
		"uri":"data:application/octet-stream;base64,",
		"byteLength":35280
	},
	{
		"uri":"data:application/octet-stream;base64,",
		"byteLength":61824
	},
	{
		"uri":"data:application/octet-stream;base64,",
		"byteLength":10136
	},
	{
		"uri":"data:application/octet-stream;base64,",
		"byteLength":7472
	},
	{
		"uri":"data:application/octet-stream;base64,",
		"byteLength":4200
	}]
}