{
	"nodes":[{
		"name":"Cube.9",
		"translation":[-14.04891300201416,
		1.971882939338684,
		16.68821144104004],
		"rotation":[0.0,
		0.0,
		0.0,
		-1.0],
		"scale":[1.0,
		1.0,
		1.0],
		"children":[1]
	},
	{
		"name":"Cube.9-Mat",
		"mesh":0
	},
	{
		"name":"Torus",
		"translation":[-18.006864547729493,
		-0.3161517381668091,
		-11.659200668334961],
		"rotation":[0.0,
		0.0,
		0.0,
		-1.0],
		"scale":[1.0,
		1.0,
		1.0],
		"children":[3,
		4,
		5,
		6]
	},
	{
		"name":"Torus-Steel",
		"mesh":1
	},
	{
		"name":"Torus-Beech",
		"mesh":2
	},
	{
		"name":"Torus-6b418c",
		"mesh":3
	},
	{
		"name":"Torus-Steel",
		"mesh":4
	},
	{
		"name":"Cube.8",
		"translation":[-17.139949798583986,
		-0.37251606583595278,
		30.849044799804689],
		"rotation":[0.0,
		0.0,
		0.0,
		-1.0],
		"scale":[1.0,
		1.0,
		1.0],
		"children":[8,
		9,
		10,
		11,
		12,
		13,
		14,
		15]
	},
	{
		"name":"Cube.8-Mat",
		"mesh":5
	},
	{
		"name":"Cube.8-6b418c",
		"mesh":6
	},
	{
		"name":"Cube.8-Mat.3",
		"mesh":7
	},
	{
		"name":"Cube.8-6b418c",
		"mesh":8
	},
	{
		"name":"Cube.8-6b418c",
		"mesh":9
	},
	{
		"name":"Cube.8-Mat.4",
		"mesh":10
	},
	{
		"name":"Cube.8-Mat.3",
		"mesh":11
	},
	{
		"name":"Cube.8-Mat.3",
		"mesh":12
	},
	{
		"name":"Window",
		"translation":[-18.95269203186035,
		0.0,
		134.1170196533203],
		"rotation":[0.0,
		-1.0,
		0.0,
		-6.123234262925839e-17],
		"scale":[1.0,
		1.0,
		1.0],
		"mesh":13
	},
	{
		"name":"model (2).obj",
		"children":[18,
		19,
		20,
		21]
	},
	{
		"name":"Window",
		"mesh":14
	},
	{
		"name":"Walls",
		"mesh":15
	},
	{
		"name":"Box",
		"mesh":16
	},
	{
		"name":"Cylinder",
		"translation":[-10.609383583068848,
		1.219005823135376,
		93.81867980957031],
		"rotation":[0.0,
		0.0,
		0.0,
		-1.0],
		"scale":[1.0,
		1.0,
		1.0],
		"mesh":17
	}],
	"asset":{
		"version":"2.0",
		"generator":"Created using the official Cinema 4D glTF Exporter 1.000x284978"
	},
	"scenes":[{
		"nodes":[0,
		2,
		7,
		16,
		17]
	}],
	"materials":[{
		"pbrMetallicRoughness":{
			"baseColorFactor":[1.0,
			1.0,
			1.0,
			1.0],
			"metallicFactor":0.0,
			"roughnessFactor":0.5
		},
		"emissiveFactor":[0.0,
		0.0,
		0.0],
		"alphaMode":"OPAQUE",
		"name":"Mat",
		"doubleSided":false
	},
	{
		"pbrMetallicRoughness":{
			"baseColorFactor":[0.0,
			0.0,
			0.0,
			1.0],
			"metallicFactor":1.0,
			"roughnessFactor":1.0
		},
		"emissiveFactor":[0.0,
		0.0,
		0.0],
		"alphaMode":"OPAQUE",
		"name":"Steel",
		"doubleSided":false
	},
	{
		"pbrMetallicRoughness":{
			"baseColorFactor":[0.0,
			0.0,
			0.0,
			1.0],
			"metallicFactor":1.0,
			"roughnessFactor":1.0
		},
		"emissiveFactor":[0.0,
		0.0,
		0.0],
		"alphaMode":"OPAQUE",
		"name":"Beech",
		"doubleSided":false
	},
	{
		"pbrMetallicRoughness":{
			"baseColorFactor":[0.7360000000000001,
			0.7456969696969699,
			0.8,
			1.0],
			"metallicFactor":1.0,
			"roughnessFactor":1.0
		},
		"emissiveFactor":[0.0,
		0.0,
		0.0],
		"alphaMode":"OPAQUE",
		"name":"6b418c",
		"doubleSided":false
	},
	{
		"pbrMetallicRoughness":{
			"baseColorFactor":[0.7280000000000001,
			0.7604000000000001,
			0.8,
			1.0],
			"metallicFactor":0.0,
			"roughnessFactor":0.5
		},
		"emissiveFactor":[0.0,
		0.0,
		0.0],
		"alphaMode":"OPAQUE",
		"name":"Mat.3",
		"doubleSided":false
	},
	{
		"pbrMetallicRoughness":{
			"baseColorFactor":[0.6552,
			0.6983999999999999,
			0.72,
			1.0],
			"metallicFactor":0.0,
			"roughnessFactor":0.5
		},
		"emissiveFactor":[0.0,
		0.0,
		0.0],
		"alphaMode":"OPAQUE",
		"name":"Mat.4",
		"doubleSided":false
	},
	{
		"pbrMetallicRoughness":{
			"baseColorFactor":[0.58,
			0.40136,
			0.32480000000000006,
			1.0],
			"metallicFactor":0.0,
			"roughnessFactor":0.5
		},
		"emissiveFactor":[0.0,
		0.0,
		0.0],
		"alphaMode":"OPAQUE",
		"name":"Mat.2",
		"doubleSided":false
	}],
	"meshes":[{
		"name":"Cube.9-Mat",
		"primitives":[{
			"material":0,
			"attributes":{
				"POSITION":1,
				"NORMAL":2,
				"TEXCOORD_0":3
			},
			"indices":0
		}]
	},
	{
		"name":"Torus-Steel",
		"primitives":[{
			"material":1,
			"attributes":{
				"POSITION":5,
				"NORMAL":6,
				"TEXCOORD_0":7
			},
			"indices":4
		}]
	},
	{
		"name":"Torus-Beech",
		"primitives":[{
			"material":2,
			"attributes":{
				"POSITION":9,
				"NORMAL":10,
				"TEXCOORD_0":11
			},
			"indices":8
		}]
	},
	{
		"name":"Torus-6b418c",
		"primitives":[{
			"material":3,
			"attributes":{
				"POSITION":13,
				"NORMAL":14,
				"TEXCOORD_0":15
			},
			"indices":12
		}]
	},
	{
		"name":"Torus-Steel",
		"primitives":[{
			"material":1,
			"attributes":{
				"POSITION":17,
				"NORMAL":18,
				"TEXCOORD_0":19
			},
			"indices":16
		}]
	},
	{
		"name":"Cube.8-Mat",
		"primitives":[{
			"material":0,
			"attributes":{
				"POSITION":21,
				"NORMAL":22,
				"TEXCOORD_0":23
			},
			"indices":20
		}]
	},
	{
		"name":"Cube.8-6b418c",
		"primitives":[{
			"material":3,
			"attributes":{
				"POSITION":25,
				"NORMAL":26,
				"TEXCOORD_0":27
			},
			"indices":24
		}]
	},
	{
		"name":"Cube.8-Mat.3",
		"primitives":[{
			"material":4,
			"attributes":{
				"POSITION":29,
				"NORMAL":30,
				"TEXCOORD_0":31
			},
			"indices":28
		}]
	},
	{
		"name":"Cube.8-6b418c",
		"primitives":[{
			"material":3,
			"attributes":{
				"POSITION":33,
				"NORMAL":34,
				"TEXCOORD_0":35
			},
			"indices":32
		}]
	},
	{
		"name":"Cube.8-6b418c",
		"primitives":[{
			"material":3,
			"attributes":{
				"POSITION":37,
				"NORMAL":38,
				"TEXCOORD_0":39
			},
			"indices":36
		}]
	},
	{
		"name":"Cube.8-Mat.4",
		"primitives":[{
			"material":5,
			"attributes":{
				"POSITION":41,
				"NORMAL":42,
				"TEXCOORD_0":43
			},
			"indices":40
		}]
	},
	{
		"name":"Cube.8-Mat.3",
		"primitives":[{
			"material":4,
			"attributes":{
				"POSITION":45,
				"NORMAL":46,
				"TEXCOORD_0":47
			},
			"indices":44
		}]
	},
	{
		"name":"Cube.8-Mat.3",
		"primitives":[{
			"material":4,
			"attributes":{
				"POSITION":49,
				"NORMAL":50,
				"TEXCOORD_0":51
			},
			"indices":48
		}]
	},
	{
		"name":"Window",
		"primitives":[{
			"material":6,
			"attributes":{
				"POSITION":53,
				"NORMAL":54,
				"TEXCOORD_0":55
			},
			"indices":52
		}]
	},
	{
		"name":"Window",
		"primitives":[{
			"material":6,
			"attributes":{
				"POSITION":57,
				"NORMAL":58,
				"TEXCOORD_0":59
			},
			"indices":56
		}]
	},
	{
		"name":"Walls",
		"primitives":[{
			"material":3,
			"attributes":{
				"POSITION":61,
				"NORMAL":62,
				"TEXCOORD_0":63
			},
			"indices":60
		}]
	},
	{
		"name":"Box",
		"primitives":[{
			"material":3,
			"attributes":{
				"POSITION":65,
				"NORMAL":66,
				"TEXCOORD_0":67
			},
			"indices":64
		}]
	},
	{
		"name":"Cylinder",
		"primitives":[{
			"material":5,
			"attributes":{
				"POSITION":69,
				"NORMAL":70,
				"TEXCOORD_0":71
			},
			"indices":68
		}]
	}],
	"accessors":[{
		"bufferView":0,
		"type":"SCALAR",
		"componentType":5123,
		"count":768,
		"byteOffset":0,
		"min":[0],
		"max":[387]
	},
	{
		"bufferView":1,
		"type":"VEC3",
		"componentType":5126,
		"count":388,
		"byteOffset":0,
		"min":[-6.212448596954346,
		2.0007216930389406,
		38.92441940307617],
		"max":[-4.369865417480469,
		3.6946887969970705,
		39.202392578125]
	},
	{
		"bufferView":1,
		"type":"VEC3",
		"componentType":5126,
		"count":388,
		"byteOffset":12,
		"min":[-1.0,
		-1.0,
		-1.0],
		"max":[1.0,
		1.0,
		1.0]
	},
	{
		"bufferView":1,
		"type":"VEC2",
		"componentType":5126,
		"count":388,
		"byteOffset":24,
		"min":[0.0,
		0.0],
		"max":[1.0,
		1.0]
	},
	{
		"bufferView":2,
		"type":"SCALAR",
		"componentType":5123,
		"count":57288,
		"byteOffset":0,
		"min":[0],
		"max":[57287]
	},
	{
		"bufferView":3,
		"type":"VEC3",
		"componentType":5126,
		"count":57288,
		"byteOffset":0,
		"min":[-4.890148639678955,
		-5.593557834625244,
		-3.9819114208221437],
		"max":[1.5020756721496583,
		9.123003005981446,
		4.009210109710693]
	},
	{
		"bufferView":3,
		"type":"VEC3",
		"componentType":5126,
		"count":57288,
		"byteOffset":12,
		"min":[-0.9972813129425049,
		-1.0,
		-0.9913750290870667],
		"max":[0.9972813129425049,
		1.0,
		0.9913750290870667]
	},
	{
		"bufferView":3,
		"type":"VEC2",
		"componentType":5126,
		"count":57288,
		"byteOffset":24,
		"min":[-11.956247329711914,
		-10.200189590454102],
		"max":[11.956247329711914,
		12.200189590454102]
	},
	{
		"bufferView":4,
		"type":"SCALAR",
		"componentType":5123,
		"count":13308,
		"byteOffset":0,
		"min":[0],
		"max":[13307]
	},
	{
		"bufferView":5,
		"type":"VEC3",
		"componentType":5126,
		"count":13308,
		"byteOffset":0,
		"min":[-4.890148639678955,
		-3.791395425796509,
		-4.012784481048584],
		"max":[1.6056959629058838,
		9.301915168762207,
		4.009210109710693]
	},
	{
		"bufferView":5,
		"type":"VEC3",
		"componentType":5126,
		"count":13308,
		"byteOffset":12,
		"min":[-0.9844688177108765,
		-0.9891250729560852,
		-0.9887188076972961],
		"max":[1.0,
		0.9891250729560852,
		0.9896562695503235]
	},
	{
		"bufferView":5,
		"type":"VEC2",
		"componentType":5126,
		"count":13308,
		"byteOffset":24,
		"min":[-18.66698455810547,
		-11.113378524780274],
		"max":[18.66698455810547,
		11.182123184204102]
	},
	{
		"bufferView":6,
		"type":"SCALAR",
		"componentType":5123,
		"count":1224,
		"byteOffset":0,
		"min":[0],
		"max":[1199]
	},
	{
		"bufferView":7,
		"type":"VEC3",
		"componentType":5126,
		"count":1200,
		"byteOffset":0,
		"min":[-5.8233642578125,
		-6.0253095626831059,
		-4.012784481048584],
		"max":[1.6056959629058838,
		6.833944797515869,
		4.009210109710693]
	},
	{
		"bufferView":7,
		"type":"VEC3",
		"componentType":5126,
		"count":1200,
		"byteOffset":12,
		"min":[-0.9999688267707825,
		-1.0,
		-1.0],
		"max":[1.0,
		1.0,
		1.0]
	},
	{
		"bufferView":7,
		"type":"VEC2",
		"componentType":5126,
		"count":1200,
		"byteOffset":24,
		"min":[-11.200189590454102,
		-10.200189590454102],
		"max":[11.200189590454102,
		12.200189590454102]
	},
	{
		"bufferView":8,
		"type":"SCALAR",
		"componentType":5123,
		"count":3156,
		"byteOffset":0,
		"min":[0],
		"max":[592]
	},
	{
		"bufferView":9,
		"type":"VEC3",
		"componentType":5126,
		"count":593,
		"byteOffset":0,
		"min":[1.619199514389038,
		2.7102725505828859,
		-0.44821298122406008],
		"max":[2.069199562072754,
		2.830272674560547,
		0.4517870247364044]
	},
	{
		"bufferView":9,
		"type":"VEC3",
		"componentType":5126,
		"count":593,
		"byteOffset":12,
		"min":[-1.0,
		-1.0,
		-0.9987813234329224],
		"max":[1.0,
		1.0,
		0.9987813234329224]
	},
	{
		"bufferView":9,
		"type":"VEC2",
		"componentType":5126,
		"count":593,
		"byteOffset":24,
		"min":[0.0,
		0.0],
		"max":[1.0,
		1.0]
	},
	{
		"bufferView":10,
		"type":"SCALAR",
		"componentType":5123,
		"count":36,
		"byteOffset":0,
		"min":[0],
		"max":[23]
	},
	{
		"bufferView":11,
		"type":"VEC3",
		"componentType":5126,
		"count":24,
		"byteOffset":0,
		"min":[1.1919714212417603,
		2.1699368953704836,
		-38.72190856933594],
		"max":[1.8330543041229249,
		2.354621410369873,
		6.331406593322754]
	},
	{
		"bufferView":11,
		"type":"VEC3",
		"componentType":5126,
		"count":24,
		"byteOffset":12,
		"min":[-1.0,
		-1.0,
		-1.0],
		"max":[1.0,
		1.0,
		1.0]
	},
	{
		"bufferView":11,
		"type":"VEC2",
		"componentType":5126,
		"count":24,
		"byteOffset":24,
		"min":[0.0,
		0.0],
		"max":[1.0,
		1.0]
	},
	{
		"bufferView":12,
		"type":"SCALAR",
		"componentType":5123,
		"count":669,
		"byteOffset":0,
		"min":[0],
		"max":[446]
	},
	{
		"bufferView":13,
		"type":"VEC3",
		"componentType":5126,
		"count":447,
		"byteOffset":0,
		"min":[-7.255492210388184,
		-0.49063920974731448,
		6.125072002410889],
		"max":[15.11741828918457,
		7.445728778839111,
		64.44046020507813]
	},
	{
		"bufferView":13,
		"type":"VEC3",
		"componentType":5126,
		"count":447,
		"byteOffset":12,
		"min":[-1.0,
		-1.0,
		-1.0],
		"max":[1.0,
		1.0,
		1.0]
	},
	{
		"bufferView":13,
		"type":"VEC2",
		"componentType":5126,
		"count":447,
		"byteOffset":24,
		"min":[0.0,
		0.0],
		"max":[1.0,
		1.0]
	},
	{
		"bufferView":14,
		"type":"SCALAR",
		"componentType":5123,
		"count":234,
		"byteOffset":0,
		"min":[0],
		"max":[155]
	},
	{
		"bufferView":15,
		"type":"VEC3",
		"componentType":5126,
		"count":156,
		"byteOffset":0,
		"min":[-7.3619384765625,
		-0.24496959149837495,
		-59.959449768066409],
		"max":[13.544011116027832,
		6.0176920890808109,
		37.63165283203125]
	},
	{
		"bufferView":15,
		"type":"VEC3",
		"componentType":5126,
		"count":156,
		"byteOffset":12,
		"min":[-1.0,
		-1.0,
		-1.0],
		"max":[1.0,
		1.0,
		1.0]
	},
	{
		"bufferView":15,
		"type":"VEC2",
		"componentType":5126,
		"count":156,
		"byteOffset":24,
		"min":[0.0,
		0.0],
		"max":[1.0,
		1.0]
	},
	{
		"bufferView":16,
		"type":"SCALAR",
		"componentType":5123,
		"count":876,
		"byteOffset":0,
		"min":[0],
		"max":[459]
	},
	{
		"bufferView":17,
		"type":"VEC3",
		"componentType":5126,
		"count":460,
		"byteOffset":0,
		"min":[-7.348011493682861,
		0.016664138063788415,
		5.987630844116211],
		"max":[2.902320146560669,
		6.038421630859375,
		13.941007614135743]
	},
	{
		"bufferView":17,
		"type":"VEC3",
		"componentType":5126,
		"count":460,
		"byteOffset":12,
		"min":[-0.9999688267707825,
		-0.9999688267707825,
		-1.0],
		"max":[0.9999688267707825,
		0.9999688267707825,
		1.0]
	},
	{
		"bufferView":17,
		"type":"VEC2",
		"componentType":5126,
		"count":460,
		"byteOffset":24,
		"min":[0.0,
		0.0],
		"max":[1.0,
		1.0]
	},
	{
		"bufferView":18,
		"type":"SCALAR",
		"componentType":5123,
		"count":36,
		"byteOffset":0,
		"min":[0],
		"max":[23]
	},
	{
		"bufferView":19,
		"type":"VEC3",
		"componentType":5126,
		"count":24,
		"byteOffset":0,
		"min":[-6.868460178375244,
		-8.857829093933106,
		4.429561614990234],
		"max":[2.820762872695923,
		7.45805549621582,
		5.1286301612854]
	},
	{
		"bufferView":19,
		"type":"VEC3",
		"componentType":5126,
		"count":24,
		"byteOffset":12,
		"min":[-1.0,
		-1.0,
		-1.0],
		"max":[1.0,
		1.0,
		1.0]
	},
	{
		"bufferView":19,
		"type":"VEC2",
		"componentType":5126,
		"count":24,
		"byteOffset":24,
		"min":[0.0,
		0.0],
		"max":[1.0,
		1.0]
	},
	{
		"bufferView":20,
		"type":"SCALAR",
		"componentType":5123,
		"count":480,
		"byteOffset":0,
		"min":[0],
		"max":[118]
	},
	{
		"bufferView":21,
		"type":"VEC3",
		"componentType":5126,
		"count":119,
		"byteOffset":0,
		"min":[1.5277987718582154,
		2.968717336654663,
		-37.582969665527347],
		"max":[1.6877987384796143,
		3.1287174224853517,
		5.417031288146973]
	},
	{
		"bufferView":21,
		"type":"VEC3",
		"componentType":5126,
		"count":119,
		"byteOffset":12,
		"min":[-1.0,
		-1.0,
		-1.0],
		"max":[1.0,
		1.0,
		1.0]
	},
	{
		"bufferView":21,
		"type":"VEC2",
		"componentType":5126,
		"count":119,
		"byteOffset":24,
		"min":[0.0,
		0.0],
		"max":[1.0,
		1.0]
	},
	{
		"bufferView":22,
		"type":"SCALAR",
		"componentType":5123,
		"count":144,
		"byteOffset":0,
		"min":[0],
		"max":[95]
	},
	{
		"bufferView":23,
		"type":"VEC3",
		"componentType":5126,
		"count":96,
		"byteOffset":0,
		"min":[-6.671958923339844,
		-0.7765680551528931,
		-50.84811019897461],
		"max":[13.574820518493653,
		6.941301345825195,
		-7.311601638793945]
	},
	{
		"bufferView":23,
		"type":"VEC3",
		"componentType":5126,
		"count":96,
		"byteOffset":12,
		"min":[-1.0,
		-1.0,
		-1.0],
		"max":[1.0,
		1.0,
		1.0]
	},
	{
		"bufferView":23,
		"type":"VEC2",
		"componentType":5126,
		"count":96,
		"byteOffset":24,
		"min":[0.0,
		0.0],
		"max":[1.0,
		1.0]
	},
	{
		"bufferView":24,
		"type":"SCALAR",
		"componentType":5123,
		"count":36,
		"byteOffset":0,
		"min":[0],
		"max":[23]
	},
	{
		"bufferView":25,
		"type":"VEC3",
		"componentType":5126,
		"count":24,
		"byteOffset":0,
		"min":[-6.708480358123779,
		-0.7765680551528931,
		-48.63706588745117],
		"max":[2.820762872695923,
		6.941301345825195,
		-46.56650924682617]
	},
	{
		"bufferView":25,
		"type":"VEC3",
		"componentType":5126,
		"count":24,
		"byteOffset":12,
		"min":[-1.0,
		-1.0,
		-1.0],
		"max":[1.0,
		1.0,
		1.0]
	},
	{
		"bufferView":25,
		"type":"VEC2",
		"componentType":5126,
		"count":24,
		"byteOffset":24,
		"min":[0.0,
		0.0],
		"max":[1.0,
		1.0]
	},
	{
		"bufferView":26,
		"type":"SCALAR",
		"componentType":5123,
		"count":4920,
		"byteOffset":0,
		"min":[0],
		"max":[2525]
	},
	{
		"bufferView":27,
		"type":"VEC3",
		"componentType":5126,
		"count":2526,
		"byteOffset":0,
		"min":[-14.477733612060547,
		3.987654209136963,
		41.86460876464844],
		"max":[-4.0627360343933109,
		6.005146026611328,
		94.51387023925781]
	},
	{
		"bufferView":27,
		"type":"VEC3",
		"componentType":5126,
		"count":2526,
		"byteOffset":12,
		"min":[-1.0,
		-1.0,
		-1.0],
		"max":[1.0,
		1.0,
		1.0]
	},
	{
		"bufferView":27,
		"type":"VEC2",
		"componentType":5126,
		"count":2526,
		"byteOffset":24,
		"min":[0.0,
		0.0],
		"max":[1.0,
		1.0]
	},
	{
		"bufferView":28,
		"type":"SCALAR",
		"componentType":5123,
		"count":17544,
		"byteOffset":0,
		"min":[0],
		"max":[8943]
	},
	{
		"bufferView":29,
		"type":"VEC3",
		"componentType":5126,
		"count":8944,
		"byteOffset":0,
		"min":[-14.477733612060547,
		0.9683937430381775,
		-4.612552642822266],
		"max":[-4.012417793273926,
		6.005146026611328,
		94.51387023925781]
	},
	{
		"bufferView":29,
		"type":"VEC3",
		"componentType":5126,
		"count":8944,
		"byteOffset":12,
		"min":[-1.0,
		-1.0,
		-1.0],
		"max":[1.0,
		1.0,
		1.0]
	},
	{
		"bufferView":29,
		"type":"VEC2",
		"componentType":5126,
		"count":8944,
		"byteOffset":24,
		"min":[0.0,
		0.0],
		"max":[1.0,
		1.0]
	},
	{
		"bufferView":30,
		"type":"SCALAR",
		"componentType":5123,
		"count":540,
		"byteOffset":0,
		"min":[0],
		"max":[292]
	},
	{
		"bufferView":31,
		"type":"VEC3",
		"componentType":5126,
		"count":293,
		"byteOffset":0,
		"min":[-4.745481014251709,
		-0.289605975151062,
		-6.834087371826172],
		"max":[5.877521991729736,
		5.908413410186768,
		2.5714879035949709]
	},
	{
		"bufferView":31,
		"type":"VEC3",
		"componentType":5126,
		"count":293,
		"byteOffset":12,
		"min":[-1.0,
		-1.0,
		-1.0],
		"max":[1.0,
		1.0,
		1.0]
	},
	{
		"bufferView":31,
		"type":"VEC2",
		"componentType":5126,
		"count":293,
		"byteOffset":24,
		"min":[0.0,
		0.0],
		"max":[1.0,
		1.0]
	},
	{
		"bufferView":32,
		"type":"SCALAR",
		"componentType":5123,
		"count":1296,
		"byteOffset":0,
		"min":[0],
		"max":[863]
	},
	{
		"bufferView":33,
		"type":"VEC3",
		"componentType":5126,
		"count":864,
		"byteOffset":0,
		"min":[-16.930160522460939,
		-5.114843845367432,
		-29.639551162719728],
		"max":[5.75602912902832,
		7.073212623596191,
		97.14289855957031]
	},
	{
		"bufferView":33,
		"type":"VEC3",
		"componentType":5126,
		"count":864,
		"byteOffset":12,
		"min":[-1.0,
		-1.0,
		-1.0],
		"max":[1.0,
		1.0,
		1.0]
	},
	{
		"bufferView":33,
		"type":"VEC2",
		"componentType":5126,
		"count":864,
		"byteOffset":24,
		"min":[0.0,
		0.0],
		"max":[1.0,
		1.0]
	},
	{
		"bufferView":34,
		"type":"SCALAR",
		"componentType":5123,
		"count":96,
		"byteOffset":0,
		"min":[0],
		"max":[51]
	},
	{
		"bufferView":35,
		"type":"VEC3",
		"componentType":5126,
		"count":52,
		"byteOffset":0,
		"min":[-6.0,
		0.0,
		-0.4000000059604645],
		"max":[6.0,
		0.4000000059604645,
		0.0]
	},
	{
		"bufferView":35,
		"type":"VEC3",
		"componentType":5126,
		"count":52,
		"byteOffset":12,
		"min":[-1.0,
		-1.0,
		-1.0],
		"max":[1.0,
		1.0,
		1.0]
	},
	{
		"bufferView":35,
		"type":"VEC2",
		"componentType":5126,
		"count":52,
		"byteOffset":24,
		"min":[0.0,
		0.0],
		"max":[1.0,
		1.0]
	}],
	"bufferViews":[{
		"buffer":0,
		"byteOffset":0,
		"byteLength":1536,
		"target":34963
	},
	{
		"buffer":0,
		"byteOffset":1536,
		"byteLength":12416,
		"target":34962,
		"byteStride":32
	},
	{
		"buffer":1,
		"byteOffset":0,
		"byteLength":114576,
		"target":34963
	},
	{
		"buffer":1,
		"byteOffset":114576,
		"byteLength":1833216,
		"target":34962,
		"byteStride":32
	},
	{
		"buffer":2,
		"byteOffset":0,
		"byteLength":26616,
		"target":34963
	},
	{
		"buffer":2,
		"byteOffset":26616,
		"byteLength":425856,
		"target":34962,
		"byteStride":32
	},
	{
		"buffer":3,
		"byteOffset":0,
		"byteLength":2448,
		"target":34963
	},
	{
		"buffer":3,
		"byteOffset":2448,
		"byteLength":38400,
		"target":34962,
		"byteStride":32
	},
	{
		"buffer":4,
		"byteOffset":0,
		"byteLength":6312,
		"target":34963
	},
	{
		"buffer":4,
		"byteOffset":6312,
		"byteLength":18976,
		"target":34962,
		"byteStride":32
	},
	{
		"buffer":5,
		"byteOffset":0,
		"byteLength":72,
		"target":34963
	},
	{
		"buffer":5,
		"byteOffset":72,
		"byteLength":768,
		"target":34962,
		"byteStride":32
	},
	{
		"buffer":6,
		"byteOffset":0,
		"byteLength":1338,
		"target":34963
	},
	{
		"buffer":6,
		"byteOffset":1340,
		"byteLength":14304,
		"target":34962,
		"byteStride":32
	},
	{
		"buffer":7,
		"byteOffset":0,
		"byteLength":468,
		"target":34963
	},
	{
		"buffer":7,
		"byteOffset":468,
		"byteLength":4992,
		"target":34962,
		"byteStride":32
	},
	{
		"buffer":8,
		"byteOffset":0,
		"byteLength":1752,
		"target":34963
	},
	{
		"buffer":8,
		"byteOffset":1752,
		"byteLength":14720,
		"target":34962,
		"byteStride":32
	},
	{
		"buffer":9,
		"byteOffset":0,
		"byteLength":72,
		"target":34963
	},
	{
		"buffer":9,
		"byteOffset":72,
		"byteLength":768,
		"target":34962,
		"byteStride":32
	},
	{
		"buffer":10,
		"byteOffset":0,
		"byteLength":960,
		"target":34963
	},
	{
		"buffer":10,
		"byteOffset":960,
		"byteLength":3808,
		"target":34962,
		"byteStride":32
	},
	{
		"buffer":11,
		"byteOffset":0,
		"byteLength":288,
		"target":34963
	},
	{
		"buffer":11,
		"byteOffset":288,
		"byteLength":3072,
		"target":34962,
		"byteStride":32
	},
	{
		"buffer":12,
		"byteOffset":0,
		"byteLength":72,
		"target":34963
	},
	{
		"buffer":12,
		"byteOffset":72,
		"byteLength":768,
		"target":34962,
		"byteStride":32
	},
	{
		"buffer":13,
		"byteOffset":0,
		"byteLength":9840,
		"target":34963
	},
	{
		"buffer":13,
		"byteOffset":9840,
		"byteLength":80832,
		"target":34962,
		"byteStride":32
	},
	{
		"buffer":14,
		"byteOffset":0,
		"byteLength":35088,
		"target":34963
	},
	{
		"buffer":14,
		"byteOffset":35088,
		"byteLength":286208,
		"target":34962,
		"byteStride":32
	},
	{
		"buffer":15,
		"byteOffset":0,
		"byteLength":1080,
		"target":34963
	},
	{
		"buffer":15,
		"byteOffset":1080,
		"byteLength":9376,
		"target":34962,
		"byteStride":32
	},
	{
		"buffer":16,
		"byteOffset":0,
		"byteLength":2592,
		"target":34963
	},
	{
		"buffer":16,
		"byteOffset":2592,
		"byteLength":27648,
		"target":34962,
		"byteStride":32
	},
	{
		"buffer":17,
		"byteOffset":0,
		"byteLength":192,
		"target":34963
	},
	{
		"buffer":17,
		"byteOffset":192,
		"byteLength":1664,
		"target":34962,
		"byteStride":32
	}],
	"buffers":[{
		"uri":"data:application/octet-stream;base64,",
		"byteLength":13952
	},
	{
		"uri":"data:application/octet-stream;base64,",
		"byteLength":1947792
	},
	{
		"uri":"data:application/octet-stream;base64,",
		"byteLength":452472
	},
	{
		"uri":"data:application/octet-stream;base64,",
		"byteLength":40848
	},
	{
		"uri":"data:application/octet-stream;base64,",
		"byteLength":25288
	},
	{
		"uri":"data:application/octet-stream;base64,",
		"byteLength":840
	},
	{
		"uri":"data:application/octet-stream;base64,",
		"byteLength":15644
	},
	{
		"uri":"data:application/octet-stream;base64,",
		"byteLength":5460
	},
	{
		"uri":"data:application/octet-stream;base64,",
		"byteLength":16472
	},
	{
		"uri":"data:application/octet-stream;base64,",
		"byteLength":840
	},
	{
		"uri":"data:application/octet-stream;base64,",
		"byteLength":4768
	},
	{
		"uri":"data:application/octet-stream;base64,",
		"byteLength":3360
	},
	{
		"uri":"data:application/octet-stream;base64,",
		"byteLength":840
	},
	{
		"uri":"data:application/octet-stream;base64,",
		"byteLength":90672
	},
	{
		"uri":"data:application/octet-stream;base64,",
		"byteLength":321296
	},
	{
		"uri":"data:application/octet-stream;base64,",
		"byteLength":10456
	},
	{
		"uri":"data:application/octet-stream;base64,",
		"byteLength":30240
	},
	{
		"uri":"data:application/octet-stream;base64,",
		"byteLength":1856
	}]
}