# WaveFront *.obj file (generated by Cinema 4D)

mtllib ./wall1.mtl

v -3.700000 2.096845 20.731456
v -3.700000 2.096845 8.633656
v -3.700000 -0.863155 20.731456
v -3.700000 -0.863155 8.633656
v -4.700000 2.096845 8.633656
v -4.700000 2.096845 20.731456
v -4.700000 -0.863155 8.633656
v -4.700000 -0.863155 20.731456
v -4.700000 2.096845 8.633656
v -3.700000 2.096845 8.633656
v -4.700000 2.096845 20.731456
v -3.700000 2.096845 20.731456
v -4.700000 -0.863155 20.731456
v -3.700000 -0.863155 20.731456
v -4.700000 -0.863155 8.633656
v -3.700000 -0.863155 8.633656
v -4.700000 2.096845 20.731456
v -3.700000 2.096845 20.731456
v -4.700000 -0.863155 20.731456
v -3.700000 -0.863155 20.731456
v -3.700000 2.096845 8.633656
v -4.700000 2.096845 8.633656
v -3.700000 -0.863155 8.633656
v -4.700000 -0.863155 8.633656
v -3.700000 7.073213 20.761156
v -3.700000 7.073213 8.603956
v -3.700000 4.293213 20.761156
v -3.700000 4.293213 8.603956
v -4.700000 7.073213 8.603956
v -4.700000 7.073213 20.761156
v -4.700000 4.293213 8.603956
v -4.700000 4.293213 20.761156
v -4.700000 7.073213 8.603956
v -3.700000 7.073213 8.603956
v -4.700000 7.073213 20.761156
v -3.700000 7.073213 20.761156
v -4.700000 4.293213 20.761156
v -3.700000 4.293213 20.761156
v -4.700000 4.293213 8.603956
v -3.700000 4.293213 8.603956
v -4.700000 7.073213 20.761156
v -3.700000 7.073213 20.761156
v -4.700000 4.293213 20.761156
v -3.700000 4.293213 20.761156
v -3.700000 7.073213 8.603956
v -4.700000 7.073213 8.603956
v -3.700000 4.293213 8.603956
v -4.700000 4.293213 8.603956
v -3.700000 5.764795 9.463143
v -3.700000 5.764795 8.631543
v -3.700000 0.924795 9.463143
v -3.700000 0.924795 8.631543
v -4.700000 5.764795 8.631543
v -4.700000 5.764795 9.463143
v -4.700000 0.924795 8.631543
v -4.700000 0.924795 9.463143
v -4.700000 5.764795 8.631543
v -3.700000 5.764795 8.631543
v -4.700000 5.764795 9.463143
v -3.700000 5.764795 9.463143
v -4.700000 0.924795 9.463143
v -3.700000 0.924795 9.463143
v -4.700000 0.924795 8.631543
v -3.700000 0.924795 8.631543
v -4.700000 5.764795 9.463143
v -3.700000 5.764795 9.463143
v -4.700000 0.924795 9.463143
v -3.700000 0.924795 9.463143
v -3.700000 5.764795 8.631543
v -4.700000 5.764795 8.631543
v -3.700000 0.924795 8.631543
v -4.700000 0.924795 8.631543
v -3.700000 5.764795 20.758251
v -3.700000 5.764795 19.926651
v -3.700000 0.924795 20.758251
v -3.700000 0.924795 19.926651
v -4.700000 5.764795 19.926651
v -4.700000 5.764795 20.758251
v -4.700000 0.924795 19.926651
v -4.700000 0.924795 20.758251
v -4.700000 5.764795 19.926651
v -3.700000 5.764795 19.926651
v -4.700000 5.764795 20.758251
v -3.700000 5.764795 20.758251
v -4.700000 0.924795 20.758251
v -3.700000 0.924795 20.758251
v -4.700000 0.924795 19.926651
v -3.700000 0.924795 19.926651
v -4.700000 5.764795 20.758251
v -3.700000 5.764795 20.758251
v -4.700000 0.924795 20.758251
v -3.700000 0.924795 20.758251
v -3.700000 5.764795 19.926651
v -4.700000 5.764795 19.926651
v -3.700000 0.924795 19.926651
v -4.700000 0.924795 19.926651
v 4.251794 6.165000 22.338577
v -3.388206 6.165000 22.338577
v 4.251794 -0.315000 22.338577
v -3.388206 -0.315000 22.338577
v -3.388206 6.165000 23.328577
v 4.251794 6.165000 23.328577
v -3.388206 -0.315000 23.328577
v 4.251794 -0.315000 23.328577
v -3.388206 6.165000 23.328577
v -3.388206 6.165000 22.338577
v 4.251794 6.165000 23.328577
v 4.251794 6.165000 22.338577
v 4.251794 -0.315000 23.328577
v 4.251794 -0.315000 22.338577
v -3.388206 -0.315000 23.328577
v -3.388206 -0.315000 22.338577
v 4.251794 6.165000 23.328577
v 4.251794 6.165000 22.338577
v 4.251794 -0.315000 23.328577
v 4.251794 -0.315000 22.338577
v -3.388206 6.165000 22.338577
v -3.388206 6.165000 23.328577
v -3.388206 -0.315000 22.338577
v -3.388206 -0.315000 23.328577
v -3.700000 6.165000 24.412458
v -3.700000 6.165000 22.392858
v -3.700000 -0.315000 24.412458
v -3.700000 -0.315000 22.392858
v -4.700000 6.165000 22.392858
v -4.700000 6.165000 24.412458
v -4.700000 -0.315000 22.392858
v -4.700000 -0.315000 24.412458
v -4.700000 6.165000 22.392858
v -3.700000 6.165000 22.392858
v -4.700000 6.165000 24.412458
v -3.700000 6.165000 24.412458
v -4.700000 -0.315000 24.412458
v -3.700000 -0.315000 24.412458
v -4.700000 -0.315000 22.392858
v -3.700000 -0.315000 22.392858
v -4.700000 6.165000 24.412458
v -3.700000 6.165000 24.412458
v -4.700000 -0.315000 24.412458
v -3.700000 -0.315000 24.412458
v -3.700000 6.165000 22.392858
v -4.700000 6.165000 22.392858
v -3.700000 -0.315000 22.392858
v -4.700000 -0.315000 22.392858
v -3.700000 6.165000 6.932472
v -3.700000 6.165000 2.041872
v -3.700000 -0.315000 6.932472
v -3.700000 -0.315000 2.041872
v -4.700000 6.165000 2.041872
v -4.700000 6.165000 6.932472
v -4.700000 -0.315000 2.041872
v -4.700000 -0.315000 6.932472
v -4.700000 6.165000 2.041872
v -3.700000 6.165000 2.041872
v -4.700000 6.165000 6.932472
v -3.700000 6.165000 6.932472
v -4.700000 -0.315000 6.932472
v -3.700000 -0.315000 6.932472
v -4.700000 -0.315000 2.041872
v -3.700000 -0.315000 2.041872
v -4.700000 6.165000 6.932472
v -3.700000 6.165000 6.932472
v -4.700000 -0.315000 6.932472
v -3.700000 -0.315000 6.932472
v -3.700000 6.165000 2.041872
v -4.700000 6.165000 2.041872
v -3.700000 -0.315000 2.041872
v -4.700000 -0.315000 2.041872
# 168 vertices

vn 1.000000 0.000000 0.000000
vn -1.000000 0.000000 0.000000
vn 0.000000 1.000000 0.000000
vn 0.000000 -1.000000 0.000000
vn 0.000000 0.000000 1.000000
vn 0.000000 0.000000 -1.000000
# 6 normals

vt 1.000000 1.000000 0.000000
vt 0.000000 0.000000 0.000000
vt 0.000000 1.000000 0.000000
vt 1.000000 0.000000 0.000000
# 4 texture coordinates

o Box
usemtl Default
f 1/3/1 3/2/1 2/1/1
f 3/2/1 4/4/1 2/1/1
f 5/3/2 7/2/2 6/1/2
f 7/2/2 8/4/2 6/1/2
f 9/3/3 11/2/3 10/1/3
f 11/2/3 12/4/3 10/1/3
f 13/3/4 15/2/4 14/1/4
f 15/2/4 16/4/4 14/1/4
f 17/3/5 19/2/5 18/1/5
f 19/2/5 20/4/5 18/1/5
f 21/3/6 23/2/6 22/1/6
f 23/2/6 24/4/6 22/1/6
f 25/3/1 27/2/1 26/1/1
f 27/2/1 28/4/1 26/1/1
f 29/3/2 31/2/2 30/1/2
f 31/2/2 32/4/2 30/1/2
f 33/3/3 35/2/3 34/1/3
f 35/2/3 36/4/3 34/1/3
f 37/3/4 39/2/4 38/1/4
f 39/2/4 40/4/4 38/1/4
f 41/3/5 43/2/5 42/1/5
f 43/2/5 44/4/5 42/1/5
f 45/3/6 47/2/6 46/1/6
f 47/2/6 48/4/6 46/1/6
f 49/3/1 51/2/1 50/1/1
f 51/2/1 52/4/1 50/1/1
f 53/3/2 55/2/2 54/1/2
f 55/2/2 56/4/2 54/1/2
f 57/3/3 59/2/3 58/1/3
f 59/2/3 60/4/3 58/1/3
f 61/3/4 63/2/4 62/1/4
f 63/2/4 64/4/4 62/1/4
f 65/3/5 67/2/5 66/1/5
f 67/2/5 68/4/5 66/1/5
f 69/3/6 71/2/6 70/1/6
f 71/2/6 72/4/6 70/1/6
f 73/3/1 75/2/1 74/1/1
f 75/2/1 76/4/1 74/1/1
f 77/3/2 79/2/2 78/1/2
f 79/2/2 80/4/2 78/1/2
f 81/3/3 83/2/3 82/1/3
f 83/2/3 84/4/3 82/1/3
f 85/3/4 87/2/4 86/1/4
f 87/2/4 88/4/4 86/1/4
f 89/3/5 91/2/5 90/1/5
f 91/2/5 92/4/5 90/1/5
f 93/3/6 95/2/6 94/1/6
f 95/2/6 96/4/6 94/1/6

usemtl Mat
f 97/3/6 99/2/6 98/1/6
f 99/2/6 100/4/6 98/1/6
f 101/3/5 103/2/5 102/1/5
f 103/2/5 104/4/5 102/1/5
f 105/3/3 107/2/3 106/1/3
f 107/2/3 108/4/3 106/1/3
f 109/3/4 111/2/4 110/1/4
f 111/2/4 112/4/4 110/1/4
f 113/3/1 115/2/1 114/1/1
f 115/2/1 116/4/1 114/1/1
f 117/3/2 119/2/2 118/1/2
f 119/2/2 120/4/2 118/1/2
f 121/3/1 123/2/1 122/1/1
f 123/2/1 124/4/1 122/1/1
f 125/3/2 127/2/2 126/1/2
f 127/2/2 128/4/2 126/1/2
f 129/3/3 131/2/3 130/1/3
f 131/2/3 132/4/3 130/1/3
f 133/3/4 135/2/4 134/1/4
f 135/2/4 136/4/4 134/1/4
f 137/3/5 139/2/5 138/1/5
f 139/2/5 140/4/5 138/1/5
f 141/3/6 143/2/6 142/1/6
f 143/2/6 144/4/6 142/1/6
f 145/3/1 147/2/1 146/1/1
f 147/2/1 148/4/1 146/1/1
f 149/3/2 151/2/2 150/1/2
f 151/2/2 152/4/2 150/1/2
f 153/3/3 155/2/3 154/1/3
f 155/2/3 156/4/3 154/1/3
f 157/3/4 159/2/4 158/1/4
f 159/2/4 160/4/4 158/1/4
f 161/3/5 163/2/5 162/1/5
f 163/2/5 164/4/5 162/1/5
f 165/3/6 167/2/6 166/1/6
f 167/2/6 168/4/6 166/1/6

